<svg version="1.1" xmlns="http://www.w3.org/2000/svg" xmlns:xlink="http://www.w3.org/1999/xlink" width="50px" height="50px" viewBox="0,0,256,256"><g fill="#e40037" fill-rule="nonzero" stroke="none" stroke-width="1" stroke-linecap="butt" stroke-linejoin="miter" stroke-miterlimit="10" stroke-dasharray="" stroke-dashoffset="0" font-family="none" font-weight="none" font-size="none" text-anchor="none" style="mix-blend-mode: normal"><g transform="scale(5.12,5.12)"><path d="M19.98438,1.98633c-0.55152,0.00862 -0.99193,0.46214 -0.98437,1.01367v5c-0.0051,0.36064 0.18438,0.69608 0.49587,0.87789c0.3115,0.18181 0.69676,0.18181 1.00825,0c0.3115,-0.18181 0.50097,-0.51725 0.49587,-0.87789v-5c0.0037,-0.2703 -0.10218,-0.53059 -0.29351,-0.72155c-0.19133,-0.19097 -0.45182,-0.29634 -0.72212,-0.29212zM45.98047,2.99023c-0.2598,0.00774 -0.50638,0.11632 -0.6875,0.30273l-42,42c-0.26124,0.25082 -0.36647,0.62327 -0.27511,0.97371c0.09136,0.35044 0.36503,0.62411 0.71547,0.71547c0.35044,0.09136 0.72289,-0.01388 0.97371,-0.27511l42,-42c0.29576,-0.28749 0.38469,-0.72707 0.22393,-1.10691c-0.16075,-0.37985 -0.53821,-0.62204 -0.9505,-0.60988zM7.96875,6.96875c-0.40692,0.00011 -0.77321,0.24676 -0.92633,0.62377c-0.15312,0.37701 -0.06255,0.80921 0.22907,1.09303l3.53711,3.53711c0.25082,0.26124 0.62327,0.36648 0.97371,0.27512c0.35044,-0.09136 0.62411,-0.36503 0.71547,-0.71547c0.09136,-0.35044 -0.01388,-0.72289 -0.27512,-0.97371l-3.53711,-3.53711c-0.18827,-0.19353 -0.4468,-0.30272 -0.7168,-0.30273zM32.00195,6.96875c-0.2598,0.00774 -0.50638,0.11632 -0.6875,0.30273l-3.53711,3.53711c-0.26124,0.25082 -0.36648,0.62327 -0.27512,0.97371c0.09136,0.35044 0.36503,0.62411 0.71547,0.71547c0.35044,0.09136 0.72289,-0.01388 0.97371,-0.27512l3.53711,-3.53711c0.29576,-0.28749 0.38469,-0.72707 0.22393,-1.10691c-0.16075,-0.37985 -0.53821,-0.62204 -0.9505,-0.60988zM20.00195,11.00781c-2.30463,0 -4.61023,0.87781 -6.36523,2.63281c-1.701,1.699 -2.63672,3.96123 -2.63672,6.36523c0,2.403 0.93672,4.66233 2.63672,6.36133c0.505,0.505 1.05762,0.9262 1.64063,1.2832l1.46875,-1.46875c-0.609,-0.316 -1.18431,-0.71752 -1.69531,-1.22852c-1.322,-1.322 -2.05078,-3.07827 -2.05078,-4.94727c0,-1.87 0.72878,-3.62917 2.05078,-4.95117c1.365,-1.364 3.15622,-2.04687 4.94922,-2.04688c1.793,0 3.58422,0.68288 4.94922,2.04688c0.505,0.505 0.91142,1.07836 1.23242,1.69336l1.46875,-1.46875c-0.361,-0.587 -0.78616,-1.13967 -1.28516,-1.63867c-1.7545,-1.755 -4.05866,-2.63281 -6.36328,-2.63281zM44.98438,15.98633c-0.55152,0.00862 -0.99193,0.46214 -0.98437,1.01367v1h-1c-0.36064,-0.0051 -0.69608,0.18438 -0.87789,0.49587c-0.18181,0.3115 -0.18181,0.69676 0,1.00825c0.18181,0.3115 0.51725,0.50097 0.87789,0.49587h1v1c-0.0051,0.36064 0.18438,0.69608 0.49587,0.87789c0.3115,0.18181 0.69676,0.18181 1.00825,0c0.3115,-0.18181 0.50097,-0.51725 0.49587,-0.87789v-1h1c0.36064,0.0051 0.69608,-0.18438 0.87789,-0.49587c0.18181,-0.3115 0.18181,-0.69676 0,-1.00825c-0.18181,-0.3115 -0.51725,-0.50097 -0.87789,-0.49587h-1v-1c0.0037,-0.2703 -0.10218,-0.53059 -0.29351,-0.72155c-0.19133,-0.19097 -0.45182,-0.29634 -0.72212,-0.29212zM3,19c-0.36064,-0.0051 -0.69608,0.18438 -0.87789,0.49587c-0.18181,0.3115 -0.18181,0.69676 0,1.00825c0.18181,0.3115 0.51725,0.50097 0.87789,0.49587h5c0.36064,0.0051 0.69608,-0.18438 0.87789,-0.49587c0.18181,-0.3115 0.18181,-0.69676 0,-1.00825c-0.18181,-0.3115 -0.51725,-0.50097 -0.87789,-0.49587zM37.5,25c-5.78737,0 -10.5,4.71263 -10.5,10.5c0,5.78737 4.71263,10.5 10.5,10.5c5.78737,0 10.5,-4.71263 10.5,-10.5c0,-0.23728 -0.02006,-0.42263 -0.02734,-0.55859c-0.02325,-0.43392 -0.32405,-0.80317 -0.7443,-0.91369c-0.42025,-0.11052 -0.86378,0.06298 -1.0975,0.42932c-0.97736,1.52871 -2.67638,2.54297 -4.63086,2.54297c-3.04961,0 -5.5,-2.45039 -5.5,-5.5c0,-1.95448 1.01426,-3.6535 2.54297,-4.63086c0.36634,-0.23371 0.53984,-0.67725 0.42932,-1.0975c-0.11052,-0.42025 -0.47977,-0.72105 -0.91369,-0.7443c-0.13597,-0.00728 -0.32132,-0.02734 -0.55859,-0.02734zM35.34375,27.43359c-0.7917,1.18808 -1.34375,2.53576 -1.34375,4.06641c0,4.13039 3.36961,7.5 7.5,7.5c1.53065,0 2.87832,-0.55205 4.06641,-1.34375c-0.96945,3.62857 -4.12528,6.34375 -8.06641,6.34375c-4.70663,0 -8.5,-3.79337 -8.5,-8.5c0,-3.94112 2.71518,-7.09696 6.34375,-8.06641zM11.49609,27.47461c-0.2598,0.00774 -0.50638,0.11632 -0.6875,0.30273l-3.53711,3.53711c-0.26123,0.25082 -0.36646,0.62326 -0.2751,0.9737c0.09136,0.35044 0.36503,0.6241 0.71546,0.71546c0.35044,0.09136 0.72288,-0.01387 0.9737,-0.2751l3.53711,-3.53711c0.29576,-0.28749 0.38469,-0.72707 0.22393,-1.10691c-0.16075,-0.37985 -0.53821,-0.62204 -0.9505,-0.60988zM21.98438,41.98633c-0.55152,0.00862 -0.99193,0.46214 -0.98437,1.01367v1h-1c-0.36064,-0.0051 -0.69608,0.18438 -0.87789,0.49587c-0.18181,0.3115 -0.18181,0.69676 0,1.00825c0.18181,0.3115 0.51725,0.50097 0.87789,0.49587h1v1c-0.0051,0.36064 0.18438,0.69608 0.49587,0.87789c0.3115,0.18181 0.69676,0.18181 1.00825,0c0.3115,-0.18181 0.50097,-0.51725 0.49587,-0.87789v-1h1c0.36064,0.0051 0.69608,-0.18438 0.87789,-0.49587c0.18181,-0.3115 0.18181,-0.69676 0,-1.00825c-0.18181,-0.3115 -0.51725,-0.50097 -0.87789,-0.49587h-1v-1c0.0037,-0.2703 -0.10218,-0.53059 -0.29351,-0.72155c-0.19133,-0.19097 -0.45182,-0.29634 -0.72212,-0.29212z"></path></g></g></svg>